<?xml version="1.0" encoding="utf-8"?>
<!-- Generator: Adobe Illustrator 25.2.0, SVG Export Plug-In . SVG Version: 6.00 Build 0)  -->
<svg version="1.1" id="Ebene_1" xmlns="http://www.w3.org/2000/svg" xmlns:xlink="http://www.w3.org/1999/xlink" x="0px" y="0px"
	 viewBox="0 0 394 206" style="enable-background:new 0 0 394 206;" xml:space="preserve">
<style type="text/css">
	.st0{fill:#31474F;}
	.st1{fill:#6BC0CF;}
	.st2{fill:url(#SVGID_1_);}
	.st3{fill:#61B8C0;}
	.st4{fill:#3E868E;}
	.st5{fill:#53777C;}
	.st6{fill:#405D63;}
	.st7{fill:url(#SVGID_2_);}
</style>
<path class="st0" d="M43.4,130.3l-23.1,52.2h15.1l4.1-10.1h22.1l4.1,10.1h15.4l-23.1-52.2H43.4z M43.8,161.5l6.7-16.7l6.7,16.7H43.8
	z M120.1,130.3h14.8v52.2h-14.8v-20.4H100v20.4H85.2v-52.2H100v19.6h20.1V130.3z M170.2,129.3c-16.7,0-29,11.5-29,27.2
	s12.3,27.2,29,27.2s29-11.5,29-27.2S186.9,129.3,170.2,129.3L170.2,129.3z M170.2,171.4c-7.9,0-14.1-5.9-14.1-14.9
	s6.2-14.9,14.1-14.9s14.1,5.9,14.1,14.9S178.1,171.4,170.2,171.4L170.2,171.4z M220.3,170.9h24.9v11.7h-39.7v-52.3h14.8L220.3,170.9
	z M265.8,130.4v52.2H251v-52.3L265.8,130.4z"/>
<path class="st1" d="M270,130.3h7.5v52.2H270V130.3z M311.4,136.3c5.6-0.1,10.9,2.1,14.7,6.2l4.9-4.7c-4.8-5.4-11.8-8.1-19.9-8.1
	c-15.9,0-27.7,11.3-27.7,26.7s11.8,26.7,27.6,26.7c8.1,0,15.1-2.8,19.9-8.2l-4.9-4.7c-3.8,4.1-9.1,6.4-14.7,6.3
	c-11.8,0-20.5-8.5-20.5-20.1S299.5,136.4,311.4,136.3L311.4,136.3z M333.4,130.3v6.5h17.9v45.7h7.4v-45.7h17.9v-6.5L333.4,130.3z"/>
<linearGradient id="SVGID_1_" gradientUnits="userSpaceOnUse" x1="208.5943" y1="146.8795" x2="212.7943" y2="184.0795" gradientTransform="matrix(1 0 0 -1 0 230)">
	<stop  offset="0" style="stop-color:#6BC0CF"/>
	<stop  offset="1" style="stop-color:#36747B"/>
</linearGradient>
<polygon class="st2" points="233.3,39.8 221.6,36.1 221.5,37 221.4,38.5 221.4,39.8 221.2,41.2 221.1,42.6 221,44 220.8,45.3 
	220.7,46.7 220.5,48.1 220.2,49.4 220,50.7 219.8,52.1 219.5,53.4 219.2,54.7 218.9,56 218.6,57.3 218.2,58.6 217.9,59.9 
	217.5,61.1 217.1,62.4 216.6,63.7 216.2,64.9 215.8,66.1 215.3,67.3 214.8,68.5 214.3,69.7 213.7,70.9 213.2,72.1 212.6,73.2 
	212.1,74.4 211.4,75.5 210.8,76.7 210.2,77.8 209.6,78.9 208.9,79.9 208.2,81 207.5,82.1 206.8,83.1 206,84.2 205.3,85.2 
	204.5,86.2 203.7,87.1 202.9,88.1 202.1,89.1 201.3,90 200.4,90.9 199.6,91.8 198.7,92.7 197.8,93.6 196.9,94.4 195.9,95.3 
	195,96.1 194,96.9 193,97.7 192,98.4 191,99.2 190,99.9 188.9,100.6 187.9,101.3 186.8,102 185.7,102.7 197.5,111 198.6,110.3 
	199.6,109.7 200.7,109 201.7,108.3 202.8,107.5 203.8,106.8 204.8,106 205.7,105.2 206.7,104.4 207.7,103.6 208.6,102.8 
	209.5,101.9 210.4,101.1 211.3,100.2 212.2,99.3 213,98.3 213.9,97.4 214.7,96.5 215.5,95.5 216.2,94.5 217,93.5 217.8,92.5 
	218.5,91.5 219.2,90.4 219.9,89.4 220.6,88.3 221.3,87.2 221.9,86.1 222.6,85 223.2,83.9 223.8,82.8 224.4,81.6 224.9,80.4 
	225.5,79.3 226,78.1 226.5,76.9 227,75.7 227.5,74.5 227.9,73.2 228.4,72 228.8,70.8 229.2,69.5 229.6,68.2 229.9,66.9 230.3,65.7 
	230.6,64.4 230.9,63.1 231.2,61.7 231.5,60.4 231.8,59.1 232,57.8 232.2,56.4 232.4,55.1 232.6,53.7 232.7,52.3 232.9,50.9 
	233,49.6 233.1,48.2 233.2,46.8 233.2,45.4 233.3,44 233.3,42.6 233.3,41.2 "/>
<polygon class="st3" points="197.5,111 185.7,102.7 186.5,104.2 198.2,112.6 "/>
<polygon class="st3" points="197.5,28.8 197.4,25 184.9,16.7 185.1,20.1 "/>
<polygon class="st1" points="224.5,28.8 184.9,16.7 197.4,25 236.2,37.2 224.5,28.8 "/>
<polygon class="st4" points="236.2,38.2 236.2,37.2 197.4,25 197.5,28.8 233.3,39.8 233.3,41.2 233.3,42.6 233.3,44 233.2,45.4 
	233.2,46.8 233.1,48.2 233,49.6 232.9,50.9 232.7,52.3 232.6,53.7 232.4,55.1 232.2,56.4 232,57.8 231.8,59.1 231.5,60.4 
	231.2,61.7 230.9,63.1 230.6,64.4 230.3,65.7 229.9,66.9 229.6,68.2 229.2,69.5 228.8,70.8 228.4,72 227.9,73.2 227.5,74.5 
	227,75.7 226.5,76.9 226,78.1 225.5,79.3 224.9,80.4 224.4,81.6 223.8,82.8 223.2,83.9 222.6,85 221.9,86.1 221.3,87.2 220.6,88.3 
	219.9,89.4 219.2,90.4 218.5,91.5 217.8,92.5 217,93.5 216.2,94.5 215.5,95.5 214.7,96.5 213.9,97.4 213,98.3 212.2,99.3 
	211.3,100.2 210.4,101.1 209.5,101.9 208.6,102.8 207.7,103.6 206.7,104.4 205.7,105.2 204.8,106 203.8,106.8 202.8,107.5 
	201.7,108.3 200.7,109 199.6,109.7 198.6,110.3 197.5,111 198.2,112.6 199.3,111.9 200.5,111.2 201.6,110.5 202.7,109.7 203.7,109 
	204.8,108.2 205.9,107.4 206.9,106.6 207.9,105.7 208.9,104.9 209.9,104 210.9,103.1 211.8,102.2 212.8,101.3 213.7,100.3 
	214.6,99.4 215.5,98.4 216.4,97.4 217.2,96.4 218,95.3 218.9,94.3 219.7,93.2 220.5,92.2 221.2,91.1 222,90 222.7,88.9 223.4,87.7 
	224.1,86.6 224.8,85.4 225.5,84.3 226.1,83.1 226.7,81.9 227.4,80.7 227.9,79.4 228.5,78.2 229.1,77 229.6,75.7 230.1,74.4 
	230.6,73.2 231.1,71.9 231.5,70.6 232,69.2 232.4,67.9 232.8,66.6 233.1,65.2 233.5,63.9 233.8,62.5 234.1,61.2 234.4,59.8 
	234.7,58.4 235,57 235.2,55.6 235.4,54.2 235.6,52.8 235.7,51.3 235.9,49.9 236,48.5 236.1,47 236.2,45.6 236.2,44.1 236.3,42.7 
	236.3,41.2 236.3,39.7 236.2,38.2 "/>
<polygon class="st5" points="179.9,24.2 144.2,49.1 155.9,57.4 191.6,32.6 179.9,24.2 "/>
<polygon class="st6" points="178.4,107.7 179.3,108.5 180.1,109.2 181,110 181.8,110.7 182.7,111.4 183.6,112 184.6,112.7 
	185.5,113.3 186.4,113.9 187.4,114.5 188.4,115.1 189.4,115.6 190.4,116.1 191.4,116.6 192.4,117.1 193.5,117.6 194.5,118 
	195.6,118.4 196.7,118.8 197.8,119.1 198.9,119.5 187.2,111.1 187.2,111.1 186.1,110.8 185,110.4 183.9,110 182.8,109.6 
	181.7,109.2 180.7,108.8 179.6,108.3 178.6,107.8 178.4,107.6 "/>
<path class="st0" d="M201.3,75.3v-0.2v-0.2v-0.2v-0.2v-0.2l-0.1-0.2l-0.1-0.2l-0.1-0.2l-0.1-0.2l-0.1-0.2l-0.1-0.2l-0.1-0.2
	l-0.1-0.2l-0.1-0.1l-0.1-0.1l-0.1-0.1l-0.1-0.1l-0.1-0.1l-0.1-0.1l-0.1-0.1l-0.1-0.1l-0.1-0.1l-0.2-0.1H199h-0.2h-0.2h-0.2h-0.2
	h-0.5h-0.2h-0.2h-0.2h-0.2L197,72l-0.2,0.1l-0.2,0.1l-0.3,0.2l-0.3,0.2l-0.3,0.2l-0.2,0.2l-0.2,0.2l-0.2,0.3l-0.2,0.3l-0.2,0.3
	l-0.1,0.3l-0.1,0.3l-0.1,0.3l-0.1,0.3v0.3V76v0.3v0.3l-8.9,4.3l-4.6-2l-16.2,7.8l-0.2-0.4l-0.4-1.2l-0.4-1.2l-0.4-1.2l-0.3-1
	l24-11.7l0.1,0.2l0.1,0.1l0.1,0.1l0.1,0.1l0.1,0.1l0.1,0.1l0.1,0.1l0.1,0.1l0.1,0.1l0.1,0.1l0.1,0.1l0.1,0.1l0.1,0.1l0.1,0.1
	l0.1,0.1h0.1h0.1h0.1h0.1h0.1h0.6h0.1h0.2h0.2h0.1h0.2l0.2-0.1l0.1-0.1l0.2-0.1l0.2-0.1l0.2-0.1l0.2-0.1l0.2-0.1L192,71l0.1-0.1
	l0.1-0.1l0.1-0.1l0.1-0.2l0.1-0.2l0.1-0.2l0.1-0.2l0.1-0.2l0.1-0.2l0.1-0.2l0.1-0.2l0.1-0.2l0.1-0.2l0.1-0.2v-0.2v-0.2v-0.2V68v-0.6
	v-0.2V67v-0.2v-0.2v-0.2l-0.1-0.2l-0.1-0.2l-0.1-0.2l-0.1-0.2l-0.1-0.2l-0.1-0.2l-0.1-0.2l-0.1-0.1l-0.1-0.1l-0.1-0.1l-0.1-0.1
	l-0.1-0.1l-0.1-0.1l-0.1-0.1l-0.1-0.1l-0.1-0.1l-0.2-0.1l-0.1-0.1l-0.2-0.1h-0.2h-0.2h-0.2h-0.2h-0.5h-0.2h-0.2h-0.2h-0.2l-0.2,0
	l-0.2,0.1l-0.2,0.1l-0.1,0.1l-0.1,0.1l-0.1,0.1l-0.1,0.1l-0.1,0.1l-0.1,0.1l-0.1,0.1l-0.1,0.1l-0.1,0.1l-0.1,0.1l-0.1,0.1l-0.1,0.1
	l-0.1,0.2l-0.1,0.1l-0.1,0.2l-0.1,0.2l-0.1,0.2l-0.1,0.2l-0.1,0.2l-0.1,0.2l-0.1,0.2v0.2v0.2v0.2v0.2v0.2v0.5v0.2v0.2v0.2l-24,11.7
	v-0.1l-0.4-1.2l-0.3-1.2l-0.3-1.2l-0.3-1.3v-0.1l16.1-8.1l3.6-8.2l10.7-5.2l0.2,0.3l0.2,0.3l0.2,0.2l0.2,0.2l0.2,0.2l0.3,0.2
	l0.3,0.1l0.3,0.1l0.3,0.1l0.3,0.1h0.3h0.3h0.3l0.3-0.1l0.3-0.1l0.3-0.1l0.2-0.1l0.2-0.1l0.2-0.1l0.2-0.1l0.1-0.1l0.1-0.1l0.1-0.1
	l0.1-0.1l0.1-0.1l0.1-0.2l0.1-0.2l0.1-0.2l0.1-0.2l0.1-0.2l0.1-0.2l0.1-0.2l0.1-0.2l0.1-0.2l0.1-0.2v-0.2v-0.2v-0.2v-0.2v-0.6v-0.2
	v-0.2v-0.2v-0.2l-0.1-0.2l-0.1-0.2l-0.1-0.2l-0.1-0.2l-0.1-0.2l-0.1-0.2l-0.1-0.2l-0.1-0.2l-0.1-0.2l-0.1-0.1l-0.1-0.1l-0.1-0.1
	l-0.1-0.1l-0.1-0.1l-0.1-0.1l-0.1-0.1l-0.1-0.1l-0.2-0.1l-0.1-0.1h-0.2h-0.2h-0.2h-0.2h-0.2h-0.5h-0.2h-0.2H194h-0.2l-0.2,0.1
	l-0.2,0.1l-0.2,0.1l-0.3,0.2l-0.3,0.2l-0.3,0.2l-0.2,0.2L192,49l-0.2,0.3l-0.2,0.3l-0.2,0.3l-0.1,0.3l-0.1,0.3l-0.1,0.3l-0.1,0.3
	v0.3v0.3v0.3v0.3L180,57.9l-3.7,8.2l-15.5,7.8l-0.2-1.2l-0.2-1.3l-0.2-1.3l-0.2-1.3l-0.2-1.3l-0.2-1.3l-0.1-1.4l-0.1-1.4l-0.1-1.3
	l-0.1-1.4l-0.1-1.4l32.7-23.8l-0.1-2.8L156,57.4v1.1V60l0.1,1.5l0.1,1.4l0.1,1.4l0.1,1.4l0.2,1.4l0.2,1.4L157,70l0.2,1.4l0.2,1.4
	l0.3,1.3l0.3,1.3l0.3,1.3l0.3,1.3l0.4,1.3l0.4,1.3l0.4,1.3l0.4,1.3l0.4,1.2l0.4,1.2l0.5,1.2l0.5,1.2l0.5,1.2l0.5,1.2l0.6,1.1
	l0.6,1.1l0.6,1.1l0.6,1.1l0.6,1.1l0.6,1.1l0.7,1l0.7,1l0.7,1l0.7,1l0.7,1l0.7,1l0.8,0.9l0.8,0.9l0.8,0.9l0.8,0.9l0.8,0.9l0.9,0.8
	l0.9,0.8l0.9,0.8l0.9,0.8l0.9,0.8l0.9,0.7l0.9,0.7l1,0.7l1,0.7l1,0.7l1,0.6l1,0.6l1,0.6l1,0.6l1.1,0.5l1.1,0.5l1.1,0.5l1.1,0.5
	l1.1,0.4l1.1,0.4l1.1,0.4l1.1,0.4l1.2,0.4l0.7-1.9l-1.1-0.3l-1.1-0.4l-1.1-0.4l-1.1-0.4l-1.1-0.4l-1.1-0.5l-1-0.5l-1-0.5l-1-0.5
	l-1-0.5l-1-0.6l-1-0.6l-1-0.6l-0.9-0.6l-0.9-0.6l-0.9-0.7l-0.9-0.7L181,110l-0.9-0.7l-0.8-0.8l-0.8-0.8l-0.8-0.8l-0.8-0.8l-0.8-0.8
	l-0.8-0.8l-0.8-0.9l-0.7-0.9l-0.7-0.9l-0.7-0.9l-0.7-0.9l-0.7-1l-0.6-1l-0.6-1l-0.6-1l-0.6-1l-0.2-0.4l7.2-3.6l0.1,0.1l0.1,0.1
	l0.1,0.1l0.1,0.1l0.1,0.1l0.1,0.1l0.1,0.1l0.1,0.1l0.1,0.1l0.1,0.1l0.1,0.1l0.1,0.1l0.1,0.1l0.1,0.1l0.1,0.1h0.1h0.1h0.1h0.1h0.1
	h0.1h0.6h0.2h0.2h0.1h0.2h0.2l0.1-0.1l0.2-0.1l0.2-0.1l0.2-0.1l0.2-0.1l0.2-0.1l0.1-0.1l0.1-0.1l0.1-0.1l0.1-0.1l0.1-0.2l0.1-0.2
	l0.1-0.2l0.1-0.2l0.1-0.2l0.1-0.2l0.1-0.2l0.1-0.2l0.1-0.2l0.1-0.2l0.1-0.2v-0.2v-0.2v-0.2v-0.2v-0.6v-0.2v-0.2v-0.2v-0.2v-0.2
	l-0.1-0.2L182,87l-0.1-0.2l-0.1-0.2l-0.1-0.2l-0.1-0.2l-0.1-0.2l-0.1-0.1l-0.1-0.1l-0.1-0.1l-0.1-0.1l-0.1-0.1l-0.1-0.1l-0.1-0.1
	l-0.1-0.1l-0.1-0.1l-0.2-0.1L180,85l-0.2-0.1h-0.2h-0.2h-0.2h-0.2h-0.7h-0.2h-0.2H178l-0.2,0.1l-0.2,0.1l-0.2,0.1l-0.1,0.1l-0.1,0.1
	l-0.1,0.1l-0.1,0.1l-0.1,0.1l-0.1,0.1l-0.1,0.1l-0.1,0.1l-0.1,0.1l-0.1,0.1l-0.1,0.1l-0.1,0.1l-0.1,0.1l-0.1,0.2l-0.1,0.2l-0.1,0.2
	l-0.1,0.2l-0.1,0.2l-0.1,0.2l-0.1,0.2v0.2v0.2v0.2v0.2v0.2v0.2v0.5v0.2v0.2v0.2l-7.5,3.7l-0.3-0.6l-0.6-1.1l-0.5-1.1l-0.5-1.1
	l-0.5-1.1l-0.3-0.6l15.7-7.5l4.6,2l9.2-4.5l0.2,0.3l0.2,0.3l0.2,0.2l0.2,0.2l0.2,0.2l0.3,0.2l0.3,0.1l0.3,0.1l0.3,0.1h0.3h0.3h0.3
	h0.3l0.3-0.1l0.3-0.1l0.3-0.1l0.2-0.1l0.2-0.1l0.2-0.1l0.1-0.1l0.1-0.1l0.1-0.1l0.1-0.1l0.1-0.1l0.1-0.1l0.1-0.2l0.1-0.2l0.1-0.2
	l0.1-0.2l0.1-0.2l0.1-0.2l0.1-0.2l0-0.1l0.1-0.2v-0.2l0.1-0.2v-0.2V76v-0.2v-0.6L201.3,75.3z M187.6,67.6v-0.2l0.1-0.2l0.1-0.2
	l0.1-0.2l0.1-0.2l0.1-0.2l0.2-0.2l0.2-0.2l0.2-0.2l0.2-0.1l0.2-0.1l0.2-0.1l0.2-0.1h0.2h0.2h0.2h0.2l0.2,0.1l0.2,0.1l0.2,0.1
	l0.2,0.1l0.2,0.2l0.2,0.2l0.1,0.2l0.1,0.2l0.1,0.2l0.1,0.2l0.1,0.2l0.1,0.2v0.3v0.3V68l-0.1,0.2l-0.1,0.2l-0.1,0.2l0,0.2l-0.1,0.2
	l-0.1,0.2l-0.2,0.2l-0.2,0.2l-0.2,0.2l-0.2,0.1l-0.2,0.1l-0.2,0.1l-0.2,0.1h-0.2h-0.2h-0.2h-0.2l-0.2-0.1l-0.2-0.1l-0.2-0.1
	l-0.2-0.1l-0.2-0.2l-0.2-0.2l-0.1-0.2l-0.1-0.2l-0.1-0.2l-0.1-0.2l-0.1-0.2l-0.1-0.2v-0.3v-0.3L187.6,67.6z M192.3,51.3v-0.2
	l0.1-0.2l0.1-0.2l0.1-0.2l0.1-0.2l0.1-0.2l0.2-0.2l0.2-0.2l0.2-0.2l0.2-0.2l0.2-0.1L194,49l0.2-0.1h0.2h0.5h0.2h0.2l0.2,0.1l0.2,0.1
	l0.2,0.1l0.2,0.1l0.2,0.2l0.1,0.2l0.1,0.2l0.1,0.2l0.1,0.2l0.1,0.3v0.2v0.3v0.3v0.2l-0.1,0.3l-0.1,0.2l-0.1,0.2l-0.1,0.2l-0.1,0.2
	l-0.1,0.2l-0.2,0.2l-0.2,0.2l-0.2,0.2l-0.2,0.1l-0.2,0.1l-0.2,0.1l-0.2,0.1h-0.2h-0.2h-0.2h-0.2l-0.2-0.1l-0.2-0.1l-0.2-0.1
	l-0.2-0.1l-0.2-0.2l-0.2-0.2l-0.1-0.2l-0.1-0.2l-0.1-0.2l-0.1-0.2l-0.1-0.2l-0.1-0.3v-0.3v-0.2L192.3,51.3z M176.4,88.6v-0.3
	l0.1-0.2l0.1-0.2l0.1-0.2l0.1-0.2l0.1-0.2l0.2-0.2l0.2-0.2l0.2-0.2l0.2-0.1l0.2-0.1l0.2-0.1l0.2-0.1h0.2h0.2h0.2h0.2l0.2,0.1
	l0.2,0.1l0.2,0.1l0.2,0.1l0.2,0.2l0.2,0.2l0.1,0.2l0.1,0.2l0.1,0.2l0.1,0.2l0.1,0.2l0.1,0.3v0.3v0.2v0.3v0.2l-0.1,0.2l-0.1,0.2
	l-0.1,0.2l-0.1,0.2l-0.1,0.2l-0.2,0.2l-0.2,0.2L180,91l-0.2,0.2l-0.2,0.1l-0.2,0.1l-0.2,0.1h-0.2h-0.2h-0.2h-0.2H178l-0.2-0.1
	l-0.2-0.1l-0.2-0.1l-0.2-0.1l-0.2-0.2l-0.1-0.2l-0.1-0.2l-0.1-0.2l-0.1-0.2l-0.1-0.3l-0.1-0.2v-0.3v-0.3L176.4,88.6z M200,76v0.3
	l-0.1,0.2l-0.1,0.2l-0.1,0.2l-0.1,0.2l-0.1,0.2l-0.1,0.2l-0.2,0.2l-0.2,0.2l-0.2,0.1l-0.2,0.1l-0.2,0.1l-0.2,0.1h-0.2h-0.2h-0.2
	h-0.2l-0.2-0.1l-0.2-0.1l-0.2-0.1l-0.2-0.1l-0.2-0.1l-0.2-0.2l-0.1-0.2l-0.1-0.2l-0.1-0.2l-0.1-0.2l-0.1-0.2l-0.1-0.3v-0.3v-0.2
	v-0.3v-0.2l0.1-0.2l0.1-0.2l0.1-0.2l0.1-0.2l0.1-0.2l0.1-0.2l0.2-0.2l0.2-0.2l0.2-0.2l0.2-0.1l0.2-0.1l0.2-0.1h0.2h0.2h0.2h0.2
	l0.2,0.1l0.2,0.1l0.2,0.1l0.2,0.1l0.2,0.1l0.2,0.2l0.1,0.2l0.1,0.2l0.1,0.2l0.1,0.2L200,75l0.1,0.3v0.3v0.3L200,76z"/>
<linearGradient id="SVGID_2_" gradientUnits="userSpaceOnUse" x1="156.2209" y1="157.6803" x2="169.1409" y2="124.0603" gradientTransform="matrix(1 0 0 -1 0 230)">
	<stop  offset="0" style="stop-color:#405D63"/>
	<stop  offset="1" style="stop-color:#31474F"/>
</linearGradient>
<polygon class="st7" points="144.2,49.1 144.3,50.1 144.3,51.6 144.4,53.1 144.5,54.5 144.6,56 144.8,57.4 144.9,58.8 145.1,60.2 
	145.3,61.6 145.6,63 145.8,64.3 146.1,65.7 146.4,67 146.7,68.4 147,69.7 147.4,71 147.7,72.3 148.1,73.5 148.5,74.8 149,76 
	149.4,77.2 149.9,78.5 150.4,79.7 150.9,80.8 151.4,82 152,83.2 152.6,84.3 153.1,85.4 153.7,86.5 154.4,87.6 155,88.6 155.7,89.7 
	156.3,90.7 157,91.7 157.7,92.7 158.5,93.7 159.2,94.6 160,95.6 160.8,96.5 161.6,97.4 162.4,98.3 163.2,99.1 164,100 164.9,100.8 
	165.8,101.6 166.7,102.4 167.6,103.1 168.5,103.9 180.2,112.2 179.3,111.5 178.4,110.7 177.5,109.9 176.6,109.1 175.8,108.3 
	174.9,107.5 174.1,106.6 173.3,105.7 172.5,104.8 171.7,103.9 170.9,103 170.2,102 169.5,101.1 168.8,100.1 168.1,99.1 167.4,98 
	166.7,97 166.1,95.9 165.5,94.8 164.9,93.7 164.3,92.6 163.7,91.5 163.2,90.3 162.6,89.2 162.1,88 161.6,86.8 161.2,85.6 
	160.7,84.4 160.3,83.1 159.9,81.9 159.5,80.6 159.1,79.3 158.7,78 158.4,76.7 158.1,75.4 157.8,74.1 157.5,72.7 157.3,71.3 
	157.1,70 156.8,68.6 156.7,67.2 156.5,65.8 156.4,64.3 156.2,62.9 156.1,61.4 156,60 156,58.5 155.9,57.4 144.2,49.1 "/>
</svg>
