<svg id="Ebene_1" data-name="Ebene 1" xmlns="http://www.w3.org/2000/svg" xmlns:xlink="http://www.w3.org/1999/xlink" viewBox="0 0 453.54 311.81"><defs><style>.cls-1{fill:#31474f;}.cls-2{fill:#6bc0cf;}.cls-3{fill:#063349;}.cls-4{fill:url(#Unbenannter_Verlauf_16);}.cls-5{fill:#61b8c0;}.cls-6{fill:#3e868e;}.cls-7{fill:#53777c;}.cls-8{fill:#405d63;}.cls-9{fill:url(#Unbenannter_Verlauf_9);}</style><linearGradient id="Unbenannter_Verlauf_16" x1="240.59" y1="103.12" x2="244.79" y2="65.92" gradientUnits="userSpaceOnUse"><stop offset="0" stop-color="#6bc0cf"/><stop offset="1" stop-color="#36747b"/></linearGradient><linearGradient id="Unbenannter_Verlauf_9" x1="188.22" y1="92.32" x2="201.14" y2="125.94" gradientUnits="userSpaceOnUse"><stop offset="0" stop-color="#405d63"/><stop offset="1" stop-color="#31474f"/></linearGradient></defs><path class="cls-1" d="M75.37,172.32,52.31,224.55H67.38l4.11-10.15H93.57l4.11,10.15h15.37L89.92,172.32Zm.45,31.19,6.71-16.72,6.72,16.72Zm76.32-31.19h14.78v52.23H152.14V204.18H132v20.37H117.22V172.32H132v19.62h20.14Zm50.06-1c-16.71,0-29,11.49-29,27.16s12.31,27.16,29,27.16,29-11.49,29-27.16S218.92,171.27,202.2,171.27Zm0,42.09c-7.91,0-14.1-5.9-14.1-14.93s6.19-14.92,14.1-14.92,14.11,5.89,14.11,14.92S210.11,213.36,202.2,213.36Zm50.07-.53h24.92v11.72h-39.7V172.32h14.78Zm45.51-40.51v52.23H283V172.32Z"/><path class="cls-2" d="M302,172.32h7.46v52.23H302Zm41.35,6a19.36,19.36,0,0,1,14.7,6.19l4.85-4.7c-4.77-5.37-11.79-8.13-19.85-8.13-15.89,0-27.68,11.27-27.68,26.71s11.79,26.71,27.61,26.71c8.13,0,15.15-2.83,19.92-8.2l-4.85-4.7a19.42,19.42,0,0,1-14.7,6.26c-11.79,0-20.52-8.5-20.52-20.07S331.51,178.36,343.3,178.36Zm22.08-6v6.49h17.91v45.74h7.39V178.81h17.91v-6.49Z"/><path class="cls-3" d="M56.9,240.16a28.85,28.85,0,0,0-5.29.49v16.24h5.24c4.52,0,6.63-2.09,6.63-8.23C63.48,241.64,60.68,240.16,56.9,240.16Zm0,15.81h-4.3v-14.5a21.8,21.8,0,0,1,4.41-.4c3.27,0,5.53,1.39,5.53,7.59C62.52,254.35,60.73,256,56.88,256Zm11.68-3.2a16,16,0,0,0,.4,4.12H68a15.78,15.78,0,0,1-.4-4.16V245l.94-.14Zm-.47-10.48c-.45,0-.71-.21-.71-.65s.26-.66.71-.66.7.21.7.66S68.53,242.29,68.09,242.29Zm4.49,8.6c0,3.93,1.19,6.28,4.22,6.28a4,4,0,0,0,4-2.33v1.6c0,2-.82,3.5-3.17,3.5a6.94,6.94,0,0,1-3-.63l-.33.84a7.93,7.93,0,0,0,3.36.64c2.82,0,4-1.69,4-4.3V245.28a13.45,13.45,0,0,0-4.39-.66C75,244.62,72.58,245.61,72.58,250.89Zm8.22,2.54c-.92,1.84-1.81,2.89-3.85,2.89-2.61,0-3.43-2-3.43-5.43,0-4.58,1.76-5.42,3.83-5.42a9.58,9.58,0,0,1,3.45.49Zm5.9-11.14c-.45,0-.71-.21-.71-.65s.26-.66.71-.66.7.21.7.66S87.15,242.29,86.7,242.29Zm.47,10.48a16,16,0,0,0,.4,4.12h-.94a15.78,15.78,0,0,1-.4-4.16V245l.94-.14Zm6.48-7.87h2.78l-.12.87H93.65v5.55c0,2.3,0,3.85,1.77,5.24l-.66.61c-1.81-1.48-2.05-3.06-2.05-6.3v-5.1H90.53v-.87h2.18v-3.78l.94-.14Zm14.29,4.58c0-3.45-1.83-4.86-4.25-4.86a7.37,7.37,0,0,0-3.78.82l.35.83a6.46,6.46,0,0,1,3.34-.78c1.88,0,3.4,1.06,3.4,4.25V250c-5.5.21-8,.86-8,3.71,0,2,.9,3.43,3.95,3.43a4.22,4.22,0,0,0,4.11-2.37,7.53,7.53,0,0,0,.43,2.18l.82-.14a11.92,11.92,0,0,1-.38-3.08Zm-.94,4c-.91,1.84-1.85,2.89-3.9,2.89-2.32,0-3.12-.77-3.12-2.56,0-2.3,2.37-2.63,7-2.87Zm6.32-.66a16,16,0,0,0,.4,4.12h-.94a15.78,15.78,0,0,1-.4-4.16V240.16l.94-.15Zm5.53,0a16,16,0,0,0,.4,4.12h-.94a15.78,15.78,0,0,1-.4-4.16V240.16l.94-.15Zm11.44-8,.92.21-3.81,11.42a6.76,6.76,0,0,1-3.38,4.28l-.45-.75a4.78,4.78,0,0,0,2.63-3.08l-4-11.89,1-.19,3.55,11.07Zm19.93,7.73c0,3.34-2.35,4.63-5.17,4.63a10.57,10.57,0,0,1-5.66-1.46l.42-.84a10,10,0,0,0,5.22,1.41c2.23,0,4.25-.94,4.25-3.76,0-2.21-2.09-2.87-4.56-3.6-2.68-.8-4.84-1.69-4.84-4.49,0-3.15,2.3-4.27,4.91-4.27a9.16,9.16,0,0,1,4.47,1l-.38.82a8.32,8.32,0,0,0-4-.89c-2.26,0-4,.82-4,3.36,0,2.28,1.9,2.89,4.21,3.59C147.71,248.83,150.22,249.6,150.22,252.54Zm20.07-2.44v6.79h-.94v-6.51c0-2.89-.38-4.91-3.08-4.91-2,0-3,1-3.74,2.89v8.53h-.94v-7.57c0-2.68-1.06-3.85-3.08-3.85s-2.84,1.05-3.73,2.89v8.53h-.94V248a11.92,11.92,0,0,0-.38-3.08l.82-.14a7.6,7.6,0,0,1,.43,2.18,4,4,0,0,1,3.94-2.37,3.33,3.33,0,0,1,3.53,2.75,4.06,4.06,0,0,1,4.23-2.75C169.39,244.62,170.29,246.74,170.29,250.1Zm12.57-.62c0-3.45-1.83-4.86-4.25-4.86a7.43,7.43,0,0,0-3.79.82l.36.83a6.43,6.43,0,0,1,3.33-.78c1.88,0,3.41,1.06,3.41,4.25V250c-5.5.21-8,.86-8,3.71,0,2,.89,3.43,3.95,3.43A4.22,4.22,0,0,0,182,254.8a7.89,7.89,0,0,0,.42,2.18l.83-.14a11.92,11.92,0,0,1-.38-3.08Zm-.94,4c-.92,1.84-1.86,2.89-3.9,2.89-2.33,0-3.13-.77-3.13-2.56,0-2.3,2.38-2.63,7-2.87Zm9.85-8.79.11,1c-2,.12-2.86,1.13-3.76,2.89v8.32h-.94V248a11.92,11.92,0,0,0-.37-3.08l.82-.14a8.93,8.93,0,0,1,.42,2.44A4.35,4.35,0,0,1,191.77,244.64Zm5.38.26h2.77l-.12.87h-2.65v5.55c0,2.3,0,3.85,1.76,5.24l-.66.61c-1.81-1.48-2-3.06-2-6.3v-5.1H194v-.87h2.19v-3.78l.94-.14Zm16.07-4.42-5.4,16.41h1l1.39-4.3h7l1.41,4.37,1-.12-5.43-16.47Zm-2.72,11.19,3.22-10,3.19,10Zm13.32,1.1a16,16,0,0,0,.4,4.12h-.94a15.78,15.78,0,0,1-.4-4.16V240.16l.94-.15Zm18.4-8,.92.21-3.62,12h-1.11l-3.15-10.85L232,257h-1.1l-3.69-12,.92-.23,3.33,11.11L234.72,245l1.09-.17L239,255.92Zm12.08,4.67c0-3.45-1.83-4.86-4.25-4.86a7.43,7.43,0,0,0-3.79.82l.36.83a6.45,6.45,0,0,1,3.33-.78c1.88,0,3.41,1.06,3.41,4.25V250c-5.5.21-8,.86-8,3.71,0,2,.89,3.43,3.95,3.43a4.22,4.22,0,0,0,4.11-2.37,7.89,7.89,0,0,0,.42,2.18l.83-.14a11.92,11.92,0,0,1-.38-3.08Zm-.94,4c-.92,1.84-1.86,2.89-3.9,2.89-2.33,0-3.12-.77-3.12-2.56,0-2.3,2.37-2.63,7-2.87Zm11.77-8.62.92.21-3.81,11.42a6.7,6.7,0,0,1-3.38,4.28l-.45-.75a4.82,4.82,0,0,0,2.64-3.08L257,245l1-.19,3.55,11.07Zm11.36,8.91c0,2.53-1.81,3.45-3.88,3.45a7.49,7.49,0,0,1-4.25-1.11l.4-.77a7.15,7.15,0,0,0,3.8,1c1.58,0,3-.63,3-2.6,0-1.65-1.48-2-3.29-2.52s-3.5-1.2-3.5-3.45,1.78-3.13,3.71-3.13a7.06,7.06,0,0,1,3.29.66l-.35.8a6.33,6.33,0,0,0-2.92-.61c-1.59,0-2.82.51-2.82,2.3,0,1.55,1.11,2,3,2.56C274.72,250.92,276.49,251.43,276.49,253.72Zm9.3-13.28h8.93v.91h-8v6.33h6.58l-.12.91h-6.46V256h8v.92h-8.93Zm19.27,4.37.92.21-4,12H301l-4-12,1-.19L301.49,256Zm8.25-.19c-2.21,0-4.79.8-4.79,6.3,0,5.1,2.23,6.25,5,6.25a7.35,7.35,0,0,0,3.9-.94l-.35-.8a6.84,6.84,0,0,1-3.53.89c-2.18,0-3.9-.8-4-4.65l8.41-.68v-.1C317.89,246.17,316.15,244.62,313.31,244.62Zm-3.85,6.2v-.23c0-4.35,1.85-5.12,3.85-5.12,2.16,0,3.57,1.13,3.62,4.74Zm16.87-6.18.12,1c-2,.12-2.87,1.13-3.76,2.89v8.32h-.94V248a11.92,11.92,0,0,0-.38-3.08l.82-.14a9.32,9.32,0,0,1,.43,2.44A4.33,4.33,0,0,1,326.33,244.64Zm10.36.17.92.21-3.81,11.42a6.73,6.73,0,0,1-3.38,4.28L330,260a4.78,4.78,0,0,0,2.63-3.08l-4-11.89,1-.19,3.55,11.07Zm18.1,0,.91.21-3.61,12H351l-3.15-10.85L344.54,257h-1.1l-3.69-12,.92-.23L344,255.92,347.29,245l1.08-.17,3.18,11.09Zm13.09,5.29v6.79h-.94v-6.51c0-2.89-.47-4.91-3.2-4.91-2,0-2.94,1.05-3.85,2.89v8.53H359V240.16l.94-.15v7a4,4,0,0,1,4-2.35C366.87,244.62,367.88,246.74,367.88,250.1Zm8.5-5.48c-2.2,0-4.79.8-4.79,6.3,0,5.1,2.23,6.25,5,6.25a7.33,7.33,0,0,0,3.9-.94l-.35-.8a6.83,6.83,0,0,1-3.52.89c-2.19,0-3.9-.8-4.05-4.65L381,251v-.1C381,246.17,379.23,244.62,376.38,244.62Zm-3.85,6.2v-.23c0-4.35,1.86-5.12,3.85-5.12,2.17,0,3.58,1.13,3.62,4.74Zm16.87-6.18.12,1c-2,.12-2.87,1.13-3.76,2.89v8.32h-.94V248a12.38,12.38,0,0,0-.37-3.08l.82-.14a9.77,9.77,0,0,1,.42,2.44A4.33,4.33,0,0,1,389.4,244.64Zm11.94,6.25c0-4.72-1.74-6.27-4.58-6.27-2.21,0-4.79.8-4.79,6.3,0,5.1,2.23,6.25,5,6.25a7.35,7.35,0,0,0,3.9-.94l-.35-.8a6.84,6.84,0,0,1-3.53.89c-2.18,0-3.9-.8-4-4.65l8.41-.68Zm-8.43-.07v-.23c0-4.35,1.85-5.12,3.85-5.12,2.16,0,3.57,1.13,3.62,4.74Z"/><polygon class="cls-4" points="265.27 59.75 253.56 56.12 253.5 57.05 253.44 58.45 253.35 59.84 253.25 61.23 253.13 62.6 253 63.98 252.84 65.34 252.66 66.7 252.46 68.06 252.25 69.4 252.01 70.74 251.76 72.07 251.49 73.39 251.2 74.71 250.89 76.01 250.56 77.31 250.21 78.6 249.85 79.88 249.46 81.14 249.06 82.4 248.64 83.65 248.2 84.89 247.75 86.12 247.27 87.34 246.78 88.54 246.27 89.74 245.74 90.92 245.2 92.09 244.63 93.25 244.05 94.4 243.45 95.54 242.84 96.66 242.2 97.77 241.55 98.87 240.89 99.95 240.2 101.02 239.5 102.08 238.78 103.12 238.04 104.15 237.29 105.16 236.52 106.16 235.74 107.14 234.93 108.11 234.11 109.06 233.28 110 232.43 110.92 231.56 111.83 230.67 112.71 229.77 113.59 228.86 114.44 227.92 115.28 226.97 116.1 226.01 116.9 225.03 117.68 224.03 118.45 223.02 119.2 222 119.92 220.95 120.63 219.89 121.33 218.82 122 217.73 122.65 229.46 130.99 230.55 130.34 231.63 129.67 232.68 128.98 233.73 128.27 234.75 127.54 235.76 126.8 236.76 126.03 237.74 125.25 238.71 124.44 239.66 123.62 240.59 122.79 241.5 121.93 242.41 121.06 243.29 120.17 244.16 119.27 245.01 118.35 245.85 117.41 246.66 116.46 247.47 115.49 248.25 114.51 249.02 113.51 249.78 112.5 250.51 111.47 251.23 110.42 251.93 109.37 252.62 108.3 253.28 107.22 253.94 106.12 254.57 105.01 255.18 103.89 255.78 102.75 256.36 101.6 256.93 100.44 257.47 99.27 258 98.08 258.51 96.89 259 95.68 259.48 94.47 259.93 93.24 260.37 92 260.79 90.75 261.19 89.49 261.58 88.22 261.94 86.94 262.29 85.66 262.62 84.36 262.93 83.05 263.22 81.74 263.49 80.42 263.75 79.09 263.98 77.75 264.19 76.41 264.39 75.05 264.57 73.69 264.73 72.33 264.87 70.95 264.99 69.57 265.08 68.19 265.17 66.79 265.23 65.4 265.27 63.99 265.29 62.59 265.29 61.17 265.27 59.75"/><polygon class="cls-5" points="229.46 130.99 217.73 122.65 218.47 124.22 230.2 132.57 229.46 130.99"/><polygon class="cls-5" points="229.54 48.77 229.36 44.96 216.91 36.68 217.07 40.13 229.54 48.77"/><polygon class="cls-2" points="256.47 48.81 216.91 36.68 229.36 44.96 268.2 57.16 256.47 48.81 256.47 48.81"/><polygon class="cls-6" points="268.23 58.24 268.2 57.16 229.36 44.96 229.54 48.77 265.27 59.75 265.29 61.17 265.29 62.59 265.27 63.99 265.23 65.4 265.17 66.79 265.08 68.19 264.99 69.57 264.87 70.95 264.73 72.33 264.57 73.69 264.39 75.05 264.19 76.41 263.98 77.75 263.75 79.09 263.49 80.42 263.22 81.74 262.93 83.05 262.62 84.36 262.29 85.66 261.94 86.94 261.58 88.22 261.19 89.49 260.79 90.75 260.37 92 259.94 93.24 259.48 94.47 259 95.68 258.51 96.89 258 98.08 257.47 99.27 256.93 100.44 256.36 101.6 255.78 102.75 255.18 103.89 254.57 105.01 253.94 106.12 253.28 107.22 252.62 108.3 251.93 109.37 251.23 110.42 250.51 111.47 249.78 112.5 249.02 113.51 248.25 114.51 247.47 115.49 246.66 116.46 245.85 117.41 245.01 118.35 244.16 119.27 243.29 120.17 242.41 121.06 241.5 121.93 240.59 122.79 239.66 123.62 238.71 124.44 237.74 125.25 236.76 126.03 235.76 126.8 234.75 127.54 233.73 128.27 232.68 128.98 231.63 129.67 230.55 130.34 229.46 130.99 230.2 132.57 231.34 131.89 232.46 131.19 233.57 130.47 234.66 129.72 235.74 128.96 236.81 128.18 237.86 127.38 238.89 126.56 239.91 125.73 240.91 124.87 241.9 124 242.87 123.1 243.82 122.19 244.76 121.27 245.68 120.32 246.59 119.36 247.47 118.38 248.35 117.39 249.2 116.38 250.04 115.35 250.86 114.31 251.67 113.25 252.46 112.18 253.22 111.09 253.98 109.98 254.71 108.87 255.43 107.74 256.13 106.59 256.81 105.43 257.47 104.26 258.12 103.08 258.74 101.88 259.35 100.67 259.94 99.44 260.5 98.21 261.06 96.96 261.59 95.7 262.1 94.43 262.59 93.15 263.06 91.86 263.52 90.55 263.95 89.24 264.37 87.92 264.76 86.58 265.13 85.24 265.49 83.89 265.82 82.53 266.13 81.16 266.43 79.78 266.7 78.39 266.95 77 267.18 75.59 267.38 74.18 267.57 72.77 267.73 71.34 267.88 69.91 268 68.47 268.1 67.03 268.18 65.58 268.23 64.12 268.27 62.66 268.28 61.19 268.27 59.72 268.23 58.24 268.23 58.24"/><polygon class="cls-7" points="211.87 44.24 176.22 69.06 187.95 77.41 223.6 52.59 211.87 44.24 211.87 44.24"/><polygon class="cls-8" points="210.45 127.72 211.28 128.48 212.12 129.23 212.97 129.96 213.84 130.67 214.73 131.36 215.63 132.03 216.55 132.68 217.48 133.3 218.43 133.91 219.39 134.5 220.37 135.06 221.36 135.6 222.36 136.12 223.38 136.62 224.42 137.09 225.47 137.55 226.53 137.98 227.61 138.38 228.7 138.77 229.8 139.13 230.92 139.47 219.19 131.12 219.19 131.12 218.07 130.78 216.97 130.42 215.88 130.04 214.8 129.63 213.74 129.2 212.69 128.75 211.65 128.27 210.63 127.77 210.37 127.64 210.45 127.72"/><path class="cls-1" d="M233.27,95.29v-.2l0-.19,0-.2,0-.19,0-.2-.06-.19-.07-.18-.07-.18-.09-.18-.09-.16-.1-.16-.1-.15-.11-.15-.12-.13-.12-.13-.13-.13-.13-.11-.14-.11-.14-.1-.15-.09-.15-.08-.15-.07-.16-.07-.16,0-.16,0-.17,0-.17,0-.17,0h-.52l-.17,0-.18,0-.17,0-.18,0-.17.06-.18.07-.17.08-.3.16-.29.19-.26.21-.24.24-.23.25-.2.28-.18.29-.16.3-.14.32-.12.33-.08.33-.07.34,0,.35V96l0,.35,0,.35L217.45,101l-4.6-2-16.24,7.77-.18-.45-.44-1.16-.43-1.17-.4-1.19-.33-1,24-11.71.08.15.09.14.09.13.1.13.1.13.11.11.12.12.11.1.12.1.13.09.13.09.13.08.13.07.14.07.14.06.14,0,.15,0,.14,0,.15,0,.15,0h.62l.15,0,.16,0,.16,0,.15,0,.16,0,.16-.06.15-.06.16-.07.17-.09.16-.09.16-.11.16-.11L224,91l.15-.13.13-.13.13-.14.12-.15.12-.15.11-.16.1-.16.1-.17.09-.17.08-.17.08-.18.06-.18.06-.19.06-.18,0-.19,0-.19,0-.2,0-.19v-.59l0-.19,0-.2,0-.19,0-.2,0-.19-.06-.19L225.2,86l-.08-.18-.08-.17-.09-.17-.1-.16-.1-.15-.12-.14-.11-.14-.12-.13-.13-.12-.13-.12-.14-.1-.14-.1-.15-.09-.15-.08-.16-.08-.15-.06-.16-.06-.17,0-.16,0-.17,0-.17,0h-.52l-.18,0-.17,0-.18,0-.17,0L221,84l-.17.07-.18.08-.15.08-.15.08-.14.1-.14.09-.13.11-.13.11-.13.11-.12.12-.11.13-.11.13-.11.13-.1.14-.09.15-.09.14-.08.15-.08.16-.07.15-.07.16-.06.17-.05.16-.05.17,0,.17,0,.17,0,.17,0,.17,0,.18v.52l0,.18v.17l0,.18-24,11.69,0-.14-.35-1.23-.33-1.25-.32-1.25-.3-1.27,0-.1,16.08-8.06L212.89,79l10.67-5.2.17.29.19.26.21.24.23.22.25.19.26.17.27.13.28.12.29.08.3.06.31,0h.31l.31,0,.31-.07.32-.1.31-.13.17-.09.16-.1.16-.1.16-.12.14-.12.15-.12.13-.14.13-.14.12-.14.12-.15.11-.16.1-.16.1-.17.09-.17.08-.17.08-.18.06-.18.06-.19.06-.19,0-.18,0-.2,0-.19,0-.19v-.59l0-.2,0-.19,0-.2,0-.19L230,70.1l-.06-.19-.07-.19-.08-.18-.08-.17-.09-.17-.1-.16-.1-.15-.12-.15-.11-.13-.12-.13-.13-.13-.13-.11-.14-.11-.14-.1-.15-.09-.15-.08-.16-.07-.15-.07-.16,0-.17,0-.16,0-.17,0-.17,0h-.52l-.18,0-.17,0-.18,0-.17,0-.18.06-.17.07-.18.08-.3.16-.28.19-.26.21-.25.24-.22.26-.21.27-.18.29-.16.3-.14.32-.11.33-.09.33-.06.35,0,.34v.35l0,.35,0,.35L212,77.93l-3.72,8.21-15.5,7.77-.23-1.15-.24-1.31-.23-1.32-.2-1.33-.18-1.35-.17-1.35-.15-1.37-.12-1.38L191.17,82l-.09-1.4L191,79.15l32.74-23.81-.15-2.75L188,77.41l0,1.08L188,80l.08,1.46.1,1.45.13,1.44.14,1.43.17,1.41.18,1.4.21,1.4.23,1.37.25,1.37.27,1.35.3,1.34.31,1.33.33,1.31.35,1.3.38,1.28.39,1.27.42,1.26.43,1.24.45,1.22.47,1.21.49,1.2.51,1.17.53,1.17.55,1.14.57,1.14.58,1.11.61,1.1.62,1.08.64,1.06.66,1,.67,1,.7,1,.71,1,.73,1,.74,1,.77.94.78.91.79.9.81.88.83.86.85.84.86.83.88.8.9.78.91.76.92.73.94.72,1,.7,1,.67,1,.66,1,.63,1,.61,1,.59,1,.56,1.06.54,1.08.52,1.08.5,1.11.47,1.11.45,1.13.42,1.15.4,1.15.38,1.17.35.69-1.92-1.12-.34-1.1-.36-1.09-.39-1.08-.4-1.06-.43-1.05-.46-1-.47-1-.5-1-.52-1-.54-1-.56-1-.59-1-.61-.93-.62-.92-.65-.9-.67-.89-.69L213,130l-.86-.73-.84-.75-.82-.76-.81-.79-.79-.81-.78-.83-.76-.84-.75-.86-.73-.88-.71-.9-.7-.92-.68-.94-.66-1-.65-1-.63-1-.61-1-.6-1-.2-.36,7.25-3.58.08.14.09.14.09.14.1.13.1.12.11.12.12.11.11.1.12.1.13.1.13.08.13.08.13.07.14.07.14.06.14,0,.15,0,.14,0,.15,0,.15,0,.15,0h.62l.16,0,.16,0,.15,0,.16,0,.16,0,.15-.06.16-.08.17-.08.16-.1.16-.11.16-.11.14-.12.15-.13.13-.13.13-.14.12-.15.12-.15.11-.15.1-.17.1-.16.09-.17.08-.18.08-.18.06-.18.06-.18.06-.19,0-.19,0-.19,0-.19,0-.2v-.58l0-.2,0-.2,0-.19,0-.2,0-.19-.06-.19L214,107l-.08-.18-.08-.18-.09-.16-.1-.16-.1-.16-.12-.14-.11-.14-.12-.13-.13-.12-.14-.11-.13-.11-.14-.1-.15-.09-.15-.08-.16-.07L212,105l-.16-.06-.17,0-.16,0-.17,0-.17,0h-.7l-.17,0-.18,0-.17,0-.18.06-.17.06-.18.08-.15.08-.15.09-.14.09-.14.1-.13.1-.13.11-.13.12-.12.12-.11.12-.11.13-.11.14-.1.14-.09.14-.09.15-.08.15-.08.15-.07.16-.07.16-.06.16-.05.16,0,.17,0,.17,0,.17,0,.17,0,.18,0,.17v.52l0,.18v.17l0,.18-7.46,3.69-.3-.58-.55-1.07-.53-1.08-.51-1.1-.49-1.12-.26-.61,15.69-7.5,4.6,2,9.23-4.5.17.28.2.27.21.24.23.22.24.19.26.16.27.14.29.12.29.08.3,0,.3,0h.31l.31,0,.32-.07.31-.1.31-.13.17-.09.17-.1.16-.1.15-.12.15-.12.14-.12.14-.14.12-.14.13-.14.11-.15.11-.16.11-.16.09-.17.09-.17.09-.17.07-.18L233,97l.06-.19,0-.19.05-.19,0-.19,0-.19,0-.19v-.59ZM219.6,87.6l0-.25.06-.25.09-.24.1-.23.12-.22.14-.21.16-.2.17-.18.19-.16.21-.14.22-.12.23-.1.23-.07.23,0,.23,0h.23l.22,0,.22.06.21.08.2.1.19.12.17.15.17.16.15.19.13.2.12.23.09.24.07.25.05.25,0,.26v.26l0,.26-.05.25-.06.25-.08.24L224,89l-.12.22-.14.21-.16.2-.17.18-.19.16-.21.14-.22.12-.23.1-.23.07-.23,0-.23,0h-.23l-.22,0-.22-.06-.2-.08-.21-.1-.19-.12-.17-.15-.17-.16-.15-.19-.13-.2-.11-.23-.1-.24-.07-.25-.05-.25,0-.26v-.26Zm4.71-16.27,0-.25.06-.25.09-.24.1-.23.12-.22.14-.21.16-.2.17-.18.19-.16.21-.15.22-.12L226,69l.23-.07.23,0H227l.22,0,.22,0,.21.08.2.1.19.13.17.14.17.17.15.18.13.21.12.22.09.24.07.26,0,.25,0,.26v.26l0,.25-.05.26-.06.24-.08.25-.11.23-.12.22-.14.21-.16.19-.17.18-.19.17-.21.14-.22.12-.23.1-.23.07-.23,0-.23,0h-.23l-.22,0-.21-.06-.21-.08-.2-.1-.19-.12-.18-.15-.17-.17-.15-.18-.13-.21-.11-.22-.1-.24-.07-.25-.05-.26,0-.26v-.25Zm-15.92,37.31,0-.26.06-.24.09-.24.1-.24.12-.22.14-.21.16-.19.17-.18.19-.17.21-.14.22-.12.23-.1.23-.07.23,0,.23,0H211l.22,0,.22.06.21.08.2.1.19.12.17.15.17.17.15.18.13.21.12.22.09.24.07.25.05.26,0,.26v.25l0,.26,0,.25-.06.25-.08.24-.11.23-.12.23-.14.2-.16.2-.17.18L212,111l-.21.15-.22.12-.23.09-.23.07-.23,0-.23,0h-.23l-.22,0-.22,0-.2-.08-.21-.1-.19-.13-.17-.14-.17-.17-.15-.18-.13-.21-.11-.22-.1-.24-.07-.26-.05-.25,0-.26v-.26ZM232,96l0,.26-.07.24-.08.24-.1.24-.13.22-.14.21-.15.19-.18.18-.19.17-.2.14-.22.12-.23.1-.23.07-.24,0-.23,0h-.22l-.22,0-.22-.06-.21-.08-.2-.1-.19-.13-.18-.14-.16-.17-.15-.18-.14-.21-.11-.22-.1-.24-.07-.25-.05-.26,0-.26v-.25l0-.26,0-.25.07-.25.08-.24.1-.23.13-.23.14-.21.15-.19.18-.18.19-.16.2-.15.22-.12.23-.1.23-.07.24,0,.22,0H230l.22,0,.22.06.21.08.2.1.19.13.18.14.16.17.15.18.14.21.11.22.1.24.07.25.05.26,0,.26v.26Z"/><polygon class="cls-9" points="176.22 69.06 176.26 70.14 176.31 71.62 176.39 73.08 176.49 74.53 176.61 75.97 176.76 77.4 176.92 78.81 177.11 80.22 177.32 81.61 177.55 82.99 177.8 84.35 178.07 85.7 178.36 87.04 178.68 88.37 179.01 89.68 179.36 90.98 179.74 92.26 180.13 93.53 180.54 94.79 180.98 96.03 181.43 97.25 181.9 98.46 182.39 99.66 182.9 100.84 183.43 102 183.98 103.15 184.55 104.28 185.13 105.39 185.74 106.49 186.36 107.57 187 108.63 187.66 109.68 188.33 110.71 189.03 111.72 189.74 112.71 190.47 113.69 191.21 114.64 191.97 115.58 192.75 116.5 193.55 117.4 194.36 118.28 195.19 119.14 196.04 119.98 196.9 120.8 197.78 121.6 198.67 122.38 199.58 123.14 200.51 123.88 212.24 132.22 211.31 131.49 210.41 130.73 209.51 129.95 208.63 129.15 207.77 128.32 206.93 127.48 206.09 126.62 205.28 125.74 204.49 124.84 203.71 123.93 202.94 122.99 202.2 122.03 201.47 121.06 200.76 120.07 200.06 119.06 199.39 118.03 198.73 116.98 198.09 115.92 197.47 114.84 196.86 113.74 196.28 112.63 195.71 111.49 195.16 110.35 194.63 109.18 194.12 108 193.63 106.81 193.16 105.6 192.71 104.38 192.28 103.14 191.86 101.88 191.47 100.61 191.09 99.33 190.74 98.03 190.41 96.72 190.09 95.39 189.8 94.05 189.53 92.7 189.28 91.33 189.05 89.96 188.84 88.56 188.66 87.16 188.49 85.75 188.35 84.32 188.22 82.88 188.12 81.43 188.04 79.97 187.99 78.49 187.95 77.41 176.22 69.06 176.22 69.06"/></svg>