<?xml version="1.0" encoding="UTF-8" standalone="no"?>
<!-- Created with Inkscape (http://www.inkscape.org/) -->

<svg
   xmlns:dc="http://purl.org/dc/elements/1.1/"
   xmlns:cc="http://creativecommons.org/ns#"
   xmlns:rdf="http://www.w3.org/1999/02/22-rdf-syntax-ns#"
   xmlns:svg="http://www.w3.org/2000/svg"
   xmlns="http://www.w3.org/2000/svg"
   xmlns:sodipodi="http://sodipodi.sourceforge.net/DTD/sodipodi-0.dtd"
   xmlns:inkscape="http://www.inkscape.org/namespaces/inkscape"
   width="111mm"
   height="110mm"
   viewBox="0 0 111 110"
   version="1.1"
   id="svg4193"
   inkscape:version="0.92.3 (2405546, 2018-03-11)"
   sodipodi:docname="drawing-1.html">
  <defs
     id="defs4187">
    <clipPath
       id="clipPath3944"
       clipPathUnits="userSpaceOnUse">
      <path
         inkscape:connector-curvature="0"
         id="path3942"
         d="M 0,425.2 H 816 V 0 H 0 Z" />
    </clipPath>
    <clipPath
       id="clipPath4388"
       clipPathUnits="userSpaceOnUse">
      <path
         inkscape:connector-curvature="0"
         id="path4386"
         d="M 0,591.147 H 591.692 V 0 H 0 Z" />
    </clipPath>
  </defs>
  <sodipodi:namedview
     id="base"
     pagecolor="#ffffff"
     bordercolor="#666666"
     borderopacity="1.0"
     inkscape:pageopacity="0.0"
     inkscape:pageshadow="2"
     inkscape:zoom="0.98994949"
     inkscape:cx="400"
     inkscape:cy="34.720676"
     inkscape:document-units="mm"
     inkscape:current-layer="layer1"
     showgrid="false"
     inkscape:window-width="1920"
     inkscape:window-height="1017"
     inkscape:window-x="-8"
     inkscape:window-y="-8"
     inkscape:window-maximized="1" />
  <metadata
     id="metadata4190">
    <rdf:RDF>
      <cc:Work
         rdf:about="">
        <dc:format>image/svg+xml</dc:format>
        <dc:type
           rdf:resource="http://purl.org/dc/dcmitype/StillImage" />
        <dc:title></dc:title>
      </cc:Work>
    </rdf:RDF>
  </metadata>
  <g
     inkscape:label="Layer 1"
     inkscape:groupmode="layer"
     id="layer1"
     transform="translate(0,-186.99999)">
    <g
       transform="matrix(0.42145551,0,0,-0.42145551,-66.711711,443.68678)"
       inkscape:label="180402_ALIA_LOGO_FINAL"
       id="g3916"
       inkscape:export-xdpi="96"
       inkscape:export-ydpi="96">
      <g
         transform="translate(356.916,290.5526)"
         id="g3918">
        <path
           inkscape:connector-curvature="0"
           id="path3920"
           style="fill:#231f20;fill-opacity:1;fill-rule:nonzero;stroke:none"
           d="m 0,0 h -24.237 v -119.312 h 91.424 v 24.237 H 0 Z" />
      </g>
      <g
         transform="translate(159.9688,171.2401)"
         id="g3922">
        <path
           inkscape:connector-curvature="0"
           id="path3924"
           style="fill:#231f20;fill-opacity:1;fill-rule:nonzero;stroke:none"
           d="M 0,0 H 27.869 L 71.283,73.406 114.959,0 h 28.963 L 71.961,119.312 Z" />
      </g>
      <g
         transform="translate(584.0688,290.5526)"
         id="g3926">
        <path
           inkscape:connector-curvature="0"
           id="path3928"
           style="fill:#231f20;fill-opacity:1;fill-rule:nonzero;stroke:none"
           d="m 0,0 -71.961,-119.312 h 27.871 l 43.414,73.405 16.068,-27.005 27.608,-46.4 h 7.406 21.557 z" />
      </g>
      <g
         transform="translate(458.2566,290.5526)"
         id="g3930">
        <path
           inkscape:connector-curvature="0"
           id="path3932"
           style="fill:#231f20;fill-opacity:1;fill-rule:nonzero;stroke:none"
           d="M 0,0 V -119.312 L 24.237,0 Z" />
      </g>
      <g
         transform="translate(458.2566,171.2402)"
         id="g3934">
        <path
           inkscape:connector-curvature="0"
           id="path3936"
           style="fill:#00b5ae;fill-opacity:1;fill-rule:nonzero;stroke:none"
           d="m 0,0 h 24.237 v 116.134 3.178 z" />
      </g>
      <g
         id="g3938">
        <g
           clip-path="url(#clipPath3944)"
           id="g3940">
          <g
             transform="translate(171.434,135.4504)"
             id="g3946">
            <path
               inkscape:connector-curvature="0"
               id="path3948"
               style="fill:#231f20;fill-opacity:1;fill-rule:nonzero;stroke:none"
               d="m 0,0 c -1.294,-0.536 -2.644,-0.803 -4.049,-0.803 -2.186,0 -3.968,0.734 -5.348,2.202 -1.379,1.469 -2.068,3.386 -2.068,5.75 0,2.595 0.747,4.675 2.241,6.24 1.495,1.565 3.395,2.348 5.699,2.348 1.227,0 2.402,-0.197 3.525,-0.591 v -1.171 c -1.123,0.505 -2.305,0.758 -3.547,0.758 -2.008,0 -3.639,-0.68 -4.896,-2.041 -1.257,-1.36 -1.885,-3.171 -1.885,-5.431 0,-2.179 0.6,-3.898 1.801,-5.159 1.201,-1.26 2.724,-1.89 4.568,-1.89 1.472,0 2.791,0.286 3.959,0.859 z" />
          </g>
          <g
             transform="translate(189.2209,150.1838)"
             id="g3950">
            <path
               inkscape:connector-curvature="0"
               id="path3952"
               style="fill:#231f20;fill-opacity:1;fill-rule:nonzero;stroke:none"
               d="m 0,0 c -1.859,0 -3.389,-0.673 -4.589,-2.019 -1.202,-1.346 -1.802,-3.108 -1.802,-5.286 0,-2.201 0.569,-3.954 1.707,-5.259 1.137,-1.305 2.654,-1.958 4.55,-1.958 1.978,0 3.543,0.645 4.695,1.935 1.153,1.29 1.729,3.088 1.729,5.393 0,2.26 -0.563,4.024 -1.689,5.292 C 3.474,-0.634 1.941,0 0,0 m -0.112,-15.536 c -2.26,0 -4.061,0.75 -5.403,2.253 -1.342,1.501 -2.013,3.453 -2.013,5.855 0,2.55 0.689,4.593 2.068,6.129 1.38,1.535 3.263,2.302 5.65,2.302 2.156,0 3.901,-0.738 5.236,-2.213 1.334,-1.476 2.002,-3.411 2.002,-5.806 0,-2.647 -0.684,-4.728 -2.052,-6.245 -1.369,-1.517 -3.198,-2.275 -5.488,-2.275" />
          </g>
          <g
             transform="translate(219.22,134.9263)"
             id="g3954">
            <path
               inkscape:connector-curvature="0"
               id="path3956"
               style="fill:#231f20;fill-opacity:1;fill-rule:nonzero;stroke:none"
               d="m 0,0 -9.525,12.926 c -0.193,0.261 -0.364,0.52 -0.513,0.781 l -0.145,0.223 h -0.044 c 0.014,-0.193 0.022,-0.428 0.022,-0.703 V 0 h -1.104 v 15.993 h 0.847 L -1.004,3.179 c 0.208,-0.283 0.435,-0.625 0.681,-1.027 h 0.055 C -0.305,2.673 -0.323,3.119 -0.323,3.491 V 15.993 H 0.781 V 0 Z" />
          </g>
          <g
             transform="translate(243.4084,134.9263)"
             id="g3958">
            <path
               inkscape:connector-curvature="0"
               id="path3960"
               style="fill:#231f20;fill-opacity:1;fill-rule:nonzero;stroke:none"
               d="m 0,0 -9.525,12.926 c -0.193,0.261 -0.364,0.52 -0.513,0.781 l -0.145,0.223 h -0.044 c 0.014,-0.193 0.022,-0.428 0.022,-0.703 V 0 h -1.104 v 15.993 h 0.847 L -1.004,3.179 c 0.208,-0.283 0.435,-0.625 0.681,-1.027 h 0.055 C -0.305,2.673 -0.323,3.119 -0.323,3.491 V 15.993 H 0.781 V 0 Z" />
          </g>
          <g
             transform="translate(256.2883,134.9263)"
             id="g3962">
            <path
               inkscape:connector-curvature="0"
               id="path3964"
               style="fill:#231f20;fill-opacity:1;fill-rule:nonzero;stroke:none"
               d="M 0,0 V 15.993 H 7.473 V 14.979 H 1.104 V 8.565 H 7.015 V 7.562 H 1.104 V 1.004 H 7.84 V 0 Z" />
          </g>
          <g
             transform="translate(286.3324,135.4504)"
             id="g3966">
            <path
               inkscape:connector-curvature="0"
               id="path3968"
               style="fill:#231f20;fill-opacity:1;fill-rule:nonzero;stroke:none"
               d="m 0,0 c -1.294,-0.536 -2.644,-0.803 -4.049,-0.803 -2.186,0 -3.968,0.734 -5.348,2.202 -1.379,1.469 -2.068,3.386 -2.068,5.75 0,2.595 0.747,4.675 2.241,6.24 1.495,1.565 3.395,2.348 5.699,2.348 1.227,0 2.402,-0.197 3.525,-0.591 v -1.171 c -1.123,0.505 -2.305,0.758 -3.547,0.758 -2.008,0 -3.639,-0.68 -4.896,-2.041 -1.257,-1.36 -1.885,-3.171 -1.885,-5.431 0,-2.179 0.6,-3.898 1.801,-5.159 1.201,-1.26 2.724,-1.89 4.568,-1.89 1.472,0 2.791,0.286 3.959,0.859 z" />
          </g>
          <g
             transform="translate(302.223,149.9049)"
             id="g3970">
            <path
               inkscape:connector-curvature="0"
               id="path3972"
               style="fill:#231f20;fill-opacity:1;fill-rule:nonzero;stroke:none"
               d="M 0,0 V -14.979 H -1.093 V 0 H -5.711 V 1.015 H 4.617 V 0 Z" />
          </g>
          <g
             transform="translate(320.1989,150.9197)"
             id="g3974">
            <path
               inkscape:connector-curvature="0"
               id="path3976"
               style="fill:#231f20;fill-opacity:1;fill-rule:nonzero;stroke:none"
               d="M 0,0 V -1.004 H -1.561 V -14.989 H 0 v -1.004 h -4.227 v 1.004 h 1.562 V -1.004 H -4.227 V 0 Z" />
          </g>
          <g
             transform="translate(342.0232,134.9263)"
             id="g3978">
            <path
               inkscape:connector-curvature="0"
               id="path3980"
               style="fill:#231f20;fill-opacity:1;fill-rule:nonzero;stroke:none"
               d="m 0,0 -9.525,12.926 c -0.193,0.261 -0.364,0.52 -0.513,0.781 l -0.145,0.223 h -0.044 c 0.014,-0.193 0.022,-0.428 0.022,-0.703 V 0 h -1.104 v 15.993 h 0.847 L -1.004,3.179 c 0.208,-0.283 0.435,-0.625 0.681,-1.027 h 0.056 C -0.305,2.673 -0.323,3.119 -0.323,3.491 V 15.993 H 0.781 V 0 Z" />
          </g>
          <g
             transform="translate(366.4688,136.0417)"
             id="g3982">
            <path
               inkscape:connector-curvature="0"
               id="path3984"
               style="fill:#231f20;fill-opacity:1;fill-rule:nonzero;stroke:none"
               d="m 0,0 c -1.65,-0.93 -3.35,-1.394 -5.097,-1.394 -2.179,0 -3.941,0.74 -5.287,2.219 -1.345,1.48 -2.018,3.42 -2.018,5.822 0,2.424 0.725,4.446 2.174,6.067 1.45,1.621 3.388,2.431 5.811,2.431 1.406,0 2.77,-0.282 4.094,-0.847 v -1.205 c -1.45,0.699 -2.867,1.049 -4.25,1.049 -2.015,0 -3.634,-0.688 -4.857,-2.064 -1.223,-1.375 -1.835,-3.13 -1.835,-5.264 0,-2.245 0.575,-4.006 1.724,-5.281 1.148,-1.275 2.696,-1.913 4.645,-1.913 1.442,0 2.706,0.313 3.792,0.938 v 5.275 h -3.77 V 6.837 H 0 Z" />
          </g>
          <g
             transform="translate(410.9957,149.9049)"
             id="g3986">
            <path
               inkscape:connector-curvature="0"
               id="path3988"
               style="fill:#231f20;fill-opacity:1;fill-rule:nonzero;stroke:none"
               d="M 0,0 V -14.979 H -1.093 V 0 H -5.711 V 1.015 H 4.617 V 0 Z" />
          </g>
          <g
             transform="translate(436.5898,134.9263)"
             id="g3990">
            <path
               inkscape:connector-curvature="0"
               id="path3992"
               style="fill:#231f20;fill-opacity:1;fill-rule:nonzero;stroke:none"
               d="M 0,0 V 7.673 H -9.157 V 0 h -1.104 v 15.993 h 1.104 V 8.677 H 0 v 7.316 H 1.093 V 0 Z" />
          </g>
          <g
             transform="translate(449.7816,134.9263)"
             id="g3994">
            <path
               inkscape:connector-curvature="0"
               id="path3996"
               style="fill:#231f20;fill-opacity:1;fill-rule:nonzero;stroke:none"
               d="M 0,0 V 15.993 H 7.473 V 14.979 H 1.104 V 8.565 H 7.015 V 7.562 H 1.104 V 1.004 H 7.84 V 0 Z" />
          </g>
          <g
             transform="translate(500.3424,150.9197)"
             id="g3998">
            <path
               inkscape:connector-curvature="0"
               id="path4000"
               style="fill:#231f20;fill-opacity:1;fill-rule:nonzero;stroke:none"
               d="M 0,0 V -1.004 H -1.561 V -14.989 H 0 v -1.004 h -4.227 v 1.004 h 1.562 V -1.004 H -4.227 V 0 Z" />
          </g>
          <g
             transform="translate(521.4865,135.4504)"
             id="g4002">
            <path
               inkscape:connector-curvature="0"
               id="path4004"
               style="fill:#231f20;fill-opacity:1;fill-rule:nonzero;stroke:none"
               d="m 0,0 c -1.294,-0.536 -2.643,-0.803 -4.049,-0.803 -2.186,0 -3.968,0.734 -5.348,2.202 -1.379,1.469 -2.068,3.386 -2.068,5.75 0,2.595 0.747,4.675 2.241,6.24 1.495,1.565 3.395,2.348 5.699,2.348 1.228,0 2.402,-0.197 3.525,-0.591 v -1.171 c -1.123,0.505 -2.305,0.758 -3.547,0.758 -2.008,0 -3.639,-0.68 -4.896,-2.041 -1.257,-1.36 -1.885,-3.171 -1.885,-5.431 0,-2.179 0.6,-3.898 1.802,-5.159 1.2,-1.26 2.723,-1.89 4.567,-1.89 1.472,0 2.791,0.286 3.959,0.859 z" />
          </g>
          <g
             transform="translate(537.3772,149.9049)"
             id="g4006">
            <path
               inkscape:connector-curvature="0"
               id="path4008"
               style="fill:#231f20;fill-opacity:1;fill-rule:nonzero;stroke:none"
               d="M 0,0 V -14.979 H -1.093 V 0 H -5.711 V 1.015 H 4.617 V 0 Z" />
          </g>
          <g
             transform="translate(582.3173,149.9049)"
             id="g4010">
            <path
               inkscape:connector-curvature="0"
               id="path4012"
               style="fill:#231f20;fill-opacity:1;fill-rule:nonzero;stroke:none"
               d="m 0,0 v -13.975 h 2.509 c 2.372,0 4.194,0.615 5.465,1.846 1.272,1.231 1.908,3.005 1.908,5.326 C 9.882,-2.268 7.498,0 2.732,0 Z M -1.104,-14.979 V 1.015 H 2.9 c 2.654,0 4.673,-0.662 6.056,-1.985 1.383,-1.324 2.074,-3.253 2.074,-5.789 0,-2.439 -0.741,-4.418 -2.225,-5.939 -1.483,-1.52 -3.53,-2.281 -6.139,-2.281 z" />
          </g>
          <g
             transform="translate(611.2902,150.1838)"
             id="g4014">
            <path
               inkscape:connector-curvature="0"
               id="path4016"
               style="fill:#231f20;fill-opacity:1;fill-rule:nonzero;stroke:none"
               d="m 0,0 c -1.859,0 -3.389,-0.673 -4.589,-2.019 -1.202,-1.346 -1.802,-3.108 -1.802,-5.286 0,-2.201 0.569,-3.954 1.707,-5.259 1.137,-1.305 2.654,-1.958 4.55,-1.958 1.978,0 3.543,0.645 4.696,1.935 1.152,1.29 1.728,3.088 1.728,5.393 0,2.26 -0.563,4.024 -1.689,5.292 C 3.474,-0.634 1.941,0 0,0 m -0.112,-15.536 c -2.26,0 -4.061,0.75 -5.403,2.253 -1.342,1.501 -2.013,3.453 -2.013,5.855 0,2.55 0.689,4.593 2.068,6.129 1.38,1.535 3.263,2.302 5.65,2.302 2.156,0 3.901,-0.738 5.236,-2.213 1.334,-1.476 2.002,-3.411 2.002,-5.806 0,-2.647 -0.684,-4.728 -2.052,-6.245 -1.369,-1.517 -3.198,-2.275 -5.488,-2.275" />
          </g>
          <g
             transform="translate(632.769,149.9049)"
             id="g4018">
            <path
               inkscape:connector-curvature="0"
               id="path4020"
               style="fill:#231f20;fill-opacity:1;fill-rule:nonzero;stroke:none"
               d="M 0,0 V -14.979 H -1.093 V 0 H -5.711 V 1.015 H 4.617 V 0 Z" />
          </g>
          <g
             transform="translate(647.6,135.4948)"
             id="g4022">
            <path
               inkscape:connector-curvature="0"
               id="path4024"
               style="fill:#231f20;fill-opacity:1;fill-rule:nonzero;stroke:none"
               d="M 0,0 V 1.261 C 1.145,0.532 2.305,0.167 3.48,0.167 c 1.249,0 2.197,0.259 2.843,0.775 0.648,0.517 0.971,1.24 0.971,2.17 0,0.818 -0.218,1.47 -0.652,1.957 C 6.207,5.556 5.264,6.22 3.814,7.06 2.193,8.004 1.167,8.795 0.736,9.43 0.305,10.066 0.089,10.8 0.089,11.633 c 0,1.13 0.439,2.089 1.316,2.877 0.878,0.788 2.049,1.182 3.513,1.182 0.952,0 1.904,-0.159 2.856,-0.479 v -1.16 c -0.937,0.424 -1.937,0.636 -3.001,0.636 -1.085,0 -1.946,-0.275 -2.581,-0.826 -0.636,-0.55 -0.954,-1.249 -0.954,-2.096 0,-0.818 0.217,-1.469 0.653,-1.952 C 2.325,9.332 3.264,8.673 4.707,7.841 6.201,6.993 7.195,6.24 7.69,5.582 8.184,4.924 8.432,4.167 8.432,3.313 8.432,2.086 8.006,1.086 7.154,0.312 6.303,-0.461 5.101,-0.847 3.547,-0.847 2.996,-0.847 2.363,-0.762 1.645,-0.591 0.927,-0.42 0.379,-0.223 0,0" />
          </g>
        </g>
      </g>
    </g>
    <g
       transform="matrix(0.35277777,0,0,-0.35277777,-48.955718,346.25984)"
       inkscape:label="Nazeel-Logo"
       id="g4380">
      <g
         id="g4382">
        <g
           clip-path="url(#clipPath4388)"
           id="g4384">
          <g
             transform="translate(312.4306,381.1188)"
             id="g4390">
            <path
               inkscape:connector-curvature="0"
               id="path4392"
               style="fill:#50a5e0;fill-opacity:1;fill-rule:nonzero;stroke:none"
               d="m 0,0 c 1.792,0 3.243,1.453 3.243,3.244 v 8.047 c 0,1.791 -1.451,3.244 -3.243,3.244 -1.792,0 -3.244,-1.453 -3.244,-3.244 V 3.244 C -3.244,1.453 -1.792,0 0,0" />
          </g>
          <g
             transform="translate(289.0351,395.6535)"
             id="g4394">
            <path
               inkscape:connector-curvature="0"
               id="path4396"
               style="fill:#50a5e0;fill-opacity:1;fill-rule:nonzero;stroke:none"
               d="m 0,0 c -1.792,0 -3.243,-1.453 -3.243,-3.244 v -8.047 c 0,-1.791 1.451,-3.244 3.243,-3.244 1.792,0 3.243,1.453 3.243,3.244 v 8.047 C 3.243,-1.453 1.792,0 0,0" />
          </g>
          <g
             transform="translate(312.4306,355.4557)"
             id="g4398">
            <path
               inkscape:connector-curvature="0"
               id="path4400"
               style="fill:#50a5e0;fill-opacity:1;fill-rule:nonzero;stroke:none"
               d="m 0,0 c 1.792,0 3.243,1.453 3.243,3.244 v 8.047 c 0,1.791 -1.451,3.244 -3.243,3.244 -1.792,0 -3.244,-1.453 -3.244,-3.244 V 3.244 C -3.244,1.453 -1.792,0 0,0" />
          </g>
          <g
             transform="translate(289.0351,369.9904)"
             id="g4402">
            <path
               inkscape:connector-curvature="0"
               id="path4404"
               style="fill:#50a5e0;fill-opacity:1;fill-rule:nonzero;stroke:none"
               d="m 0,0 c -1.792,0 -3.243,-1.453 -3.243,-3.244 v -8.047 c 0,-1.791 1.451,-3.244 3.243,-3.244 1.792,0 3.243,1.453 3.243,3.244 v 8.047 C 3.243,-1.453 1.792,0 0,0" />
          </g>
          <g
             transform="translate(315.6738,333.0358)"
             id="g4406">
            <path
               inkscape:connector-curvature="0"
               id="path4408"
               style="fill:#50a5e0;fill-opacity:1;fill-rule:nonzero;stroke:none"
               d="m 0,0 v 8.048 c 0,1.79 -1.451,3.244 -3.243,3.244 -1.792,0 -3.244,-1.454 -3.244,-3.244 V 0 c 0,-1.791 1.452,-3.243 3.244,-3.243 C -1.451,-3.243 0,-1.791 0,0" />
          </g>
          <g
             transform="translate(265.6396,395.6535)"
             id="g4410">
            <path
               inkscape:connector-curvature="0"
               id="path4412"
               style="fill:#50a5e0;fill-opacity:1;fill-rule:nonzero;stroke:none"
               d="m 0,0 c -1.791,0 -3.243,-1.453 -3.243,-3.244 v -8.047 c 0,-1.791 1.452,-3.244 3.243,-3.244 1.792,0 3.244,1.453 3.244,3.244 v 8.047 C 3.244,-1.453 1.792,0 0,0" />
          </g>
          <g
             transform="translate(214.1709,277.5285)"
             id="g4414">
            <path
               inkscape:connector-curvature="0"
               id="path4416"
               style="fill:#50a5e0;fill-opacity:1;fill-rule:nonzero;stroke:none"
               d="m 0,0 c -16.363,-0.612 -30.166,12.822 -30.792,29.916 -0.066,1.791 -1.579,3.267 -3.36,3.123 -1.79,-0.065 -3.189,-1.569 -3.123,-3.359 0.74,-20.222 16.862,-36.186 36.219,-36.186 0.429,0 0.861,0.008 1.292,0.023 1.791,0.066 3.19,1.569 3.123,3.36 C 3.293,-1.333 1.766,0.076 0,0" />
          </g>
          <g
             transform="translate(351.6758,367.6716)"
             id="g4418">
            <path
               inkscape:connector-curvature="0"
               id="path4420"
               style="fill:#50a5e0;fill-opacity:1;fill-rule:nonzero;stroke:none"
               d="m 0,0 c 1.792,0 3.244,1.453 3.244,3.244 v 6.793 c 0,1.791 -1.452,3.243 -3.244,3.243 -1.792,0 -3.243,-1.452 -3.243,-3.243 V 3.244 C -3.243,1.453 -1.792,0 0,0" />
          </g>
          <g
             transform="translate(351.6758,346.0016)"
             id="g4422">
            <path
               inkscape:connector-curvature="0"
               id="path4424"
               style="fill:#50a5e0;fill-opacity:1;fill-rule:nonzero;stroke:none"
               d="m 0,0 c 1.792,0 3.244,1.453 3.244,3.244 v 6.793 c 0,1.791 -1.452,3.243 -3.244,3.243 -1.792,0 -3.243,-1.452 -3.243,-3.243 V 3.244 C -3.243,1.453 -1.792,0 0,0" />
          </g>
          <g
             transform="translate(395.6924,241.3469)"
             id="g4426">
            <path
               inkscape:connector-curvature="0"
               id="path4428"
               style="fill:#50a5e0;fill-opacity:1;fill-rule:nonzero;stroke:none"
               d="M 0,0 C -0.101,0 -0.196,-0.021 -0.295,-0.029 -0.394,-0.021 -0.488,0 -0.59,0 h -178.941 c -19.448,0 -38.061,8.027 -51.068,22.02 -12.625,13.583 -18.832,31.23 -17.48,49.693 2.52,34.41 31.544,61.568 66.097,61.828 l 0.856,0.003 c 36.631,-0.191 66.433,-30.141 66.433,-66.762 0,-8.69 -1.644,-17.143 -4.885,-25.123 -0.675,-1.66 0.124,-3.552 1.784,-4.225 1.657,-0.672 3.551,0.125 4.226,1.784 3.557,8.76 5.362,18.032 5.362,27.564 0,27.913 -15.789,52.281 -38.905,64.636 0.077,0.279 0.132,0.567 0.132,0.87 v 20.722 c 0,9.72 7.909,17.628 17.628,17.628 h 0.945 46.241 c 9.72,0 17.629,-7.908 17.629,-17.628 V 56.056 c -8.311,-2.161 -15.536,-7.629 -19.818,-15.336 -0.87,-1.567 -0.306,-3.542 1.26,-4.412 1.568,-0.87 3.54,-0.304 4.41,1.261 4.467,8.039 12.949,13.033 22.135,13.033 9.19,0 17.672,-4.998 22.139,-13.041 0.592,-1.069 1.698,-1.671 2.839,-1.671 0.532,0 1.073,0.131 1.571,0.408 1.565,0.87 2.131,2.844 1.262,4.409 -4.181,7.53 -11.166,12.931 -19.232,15.196 3.575,23.616 23.88,41.236 47.97,41.236 26.782,0 48.57,-21.788 48.57,-48.57 C 48.57,21.789 26.782,0 0,0 m -129.1,185.688 c 0,0.382 0.312,0.695 0.694,0.695 h 46.923 c 0.381,0 0.693,-0.313 0.693,-0.695 v -7.87 c 0,-0.382 -0.312,-0.693 -0.693,-0.693 h -0.682 -46.241 c -0.382,0 -0.694,0.311 -0.694,0.693 z m 97.466,-48.439 V 93.685 c 0,-0.03 0.008,-0.057 0.009,-0.086 -11.921,-8.372 -20.386,-21.364 -22.729,-36.587 -0.727,0.05 -1.459,0.077 -2.195,0.077 -0.503,0 -1.002,-0.027 -1.501,-0.05 v 94.59 h 12.036 c 7.929,0 14.38,-6.451 14.38,-14.38 M -0.81,109.831 c 0,-2.152 -0.312,-4.257 -0.919,-6.285 -8.388,-0.262 -16.337,-2.379 -23.417,-6.017 v 34.089 c 0.799,0.087 1.602,0.147 2.404,0.147 12.094,0 21.932,-9.841 21.932,-21.934 m 5.725,-6.436 c 0.487,2.1 0.763,4.247 0.763,6.436 0,15.67 -12.749,28.42 -28.42,28.42 -0.817,0 -1.635,-0.036 -2.449,-0.106 -0.475,11.089 -9.619,19.971 -20.823,19.971 h -12.591 c -1.812,8.365 -7.975,15.116 -15.994,17.776 0.173,0.617 0.296,1.254 0.296,1.926 v 7.87 c 0,3.959 -3.221,7.182 -7.18,7.182 h -21.031 v 12.936 c 0,1.791 -1.452,3.244 -3.244,3.244 -1.792,0 -3.243,-1.453 -3.243,-3.244 V 192.87 h -19.405 c -3.96,0 -7.181,-3.223 -7.181,-7.182 v -7.87 c 0,-0.514 0.059,-1.014 0.162,-1.498 -10.36,-2.703 -18.041,-12.114 -18.041,-23.31 v -18.578 c -8.53,3.551 -17.861,5.548 -27.643,5.6 l -0.943,-0.005 c -37.887,-0.284 -69.732,-30.085 -72.498,-67.841 -1.484,-20.281 5.335,-39.664 19.198,-54.583 14.232,-15.31 34.578,-24.09 55.821,-24.09 H -0.59 c 0.102,0 0.196,0.021 0.295,0.029 0.099,-0.008 0.194,-0.029 0.295,-0.029 30.359,0 55.057,24.698 55.057,55.056 0,28.702 -22.078,52.331 -50.142,54.826" />
          </g>
          <g
             transform="translate(139.5332,141.6931)"
             id="g4430">
            <path
               inkscape:connector-curvature="0"
               id="path4432"
               style="fill:#50a5e0;fill-opacity:1;fill-rule:nonzero;stroke:none"
               d="m 0,0 v 40.788 c 0,8.238 5.1,14.121 12.943,14.121 7.845,0 12.944,-5.883 12.944,-14.121 V 0 c 0,-0.472 -0.315,-0.785 -0.785,-0.785 h -3.137 c -0.471,0 -0.785,0.313 -0.785,0.785 v 40.788 c 0,5.806 -3.216,9.728 -8.237,9.728 -5.02,0 -8.235,-3.922 -8.235,-9.728 V 0 c 0,-0.472 -0.315,-0.785 -0.786,-0.785 H 0.785 C 0.315,-0.785 0,-0.472 0,0" />
          </g>
          <g
             transform="translate(223.0039,165.2243)"
             id="g4434">
            <path
               inkscape:connector-curvature="0"
               id="path4436"
               style="fill:#50a5e0;fill-opacity:1;fill-rule:nonzero;stroke:none"
               d="m 0,0 v 17.18 c 0,6.119 -2.979,9.726 -8.236,9.726 -5.256,0 -8.236,-3.607 -8.236,-9.726 V 0 Z M -21.18,-23.531 V 17.18 c 0,8.47 5.178,14.118 12.944,14.118 7.765,0 12.943,-5.648 12.943,-14.118 v -40.711 c 0,-0.472 -0.314,-0.785 -0.785,-0.785 H 0.785 C 0.314,-24.316 0,-24.003 0,-23.531 v 19.138 h -16.472 v -19.138 c 0,-0.472 -0.315,-0.785 -0.785,-0.785 h -3.138 c -0.469,0 -0.785,0.313 -0.785,0.785" />
          </g>
          <g
             transform="translate(286.7871,145.3005)"
             id="g4438">
            <path
               inkscape:connector-curvature="0"
               id="path4440"
               style="fill:#50a5e0;fill-opacity:1;fill-rule:nonzero;stroke:none"
               d="M 0,0 C 0.47,0 0.783,-0.313 0.783,-0.783 V -3.607 C 0.783,-4.08 0.47,-4.393 0,-4.393 h -22.278 c -1.492,0 -2.354,0.862 -2.354,2.354 v 1.568 c 0,1.098 0.079,1.884 0.549,2.903 l 20.16,43.692 h -18.278 c -0.471,0 -0.783,0.314 -0.783,0.785 v 2.823 c 0,0.471 0.312,0.786 0.783,0.786 h 20.474 c 1.491,0 2.276,-0.786 2.354,-2.354 L 0.704,46.596 C 0.783,45.498 0.627,44.712 0.155,43.693 L -20.16,0 Z" />
          </g>
          <g
             transform="translate(320.914,154.2429)"
             id="g4442">
            <path
               inkscape:connector-curvature="0"
               id="path4444"
               style="fill:#50a5e0;fill-opacity:1;fill-rule:nonzero;stroke:none"
               d="m 0,0 v 28.238 c 0,7.611 5.256,13.493 12.786,13.493 h 8.159 c 0.47,0 0.784,-0.313 0.784,-0.783 v -2.824 c 0,-0.471 -0.314,-0.786 -0.784,-0.786 h -8.159 c -4.784,0 -8.079,-3.922 -8.079,-9.1 v -11.53 h 14.355 c 0.47,0 0.785,-0.313 0.785,-0.783 v -2.824 c 0,-0.473 -0.315,-0.786 -0.785,-0.786 H 4.707 V 0 c 0,-5.178 3.295,-9.1 8.079,-9.1 h 8.159 c 0.47,0 0.784,-0.313 0.784,-0.783 v -2.824 c 0,-0.471 -0.314,-0.786 -0.784,-0.786 H 12.786 C 5.256,-13.493 0,-7.608 0,0" />
          </g>
          <g
             transform="translate(375.8291,154.2429)"
             id="g4446">
            <path
               inkscape:connector-curvature="0"
               id="path4448"
               style="fill:#50a5e0;fill-opacity:1;fill-rule:nonzero;stroke:none"
               d="m 0,0 v 28.238 c 0,7.611 5.256,13.493 12.785,13.493 h 8.159 c 0.471,0 0.784,-0.313 0.784,-0.783 v -2.824 c 0,-0.471 -0.313,-0.786 -0.784,-0.786 h -8.159 c -4.784,0 -8.078,-3.922 -8.078,-9.1 v -11.53 h 14.355 c 0.469,0 0.785,-0.313 0.785,-0.783 v -2.824 c 0,-0.473 -0.316,-0.786 -0.785,-0.786 H 4.707 V 0 c 0,-5.178 3.294,-9.1 8.078,-9.1 h 8.159 c 0.471,0 0.784,-0.313 0.784,-0.783 v -2.824 c 0,-0.471 -0.313,-0.786 -0.784,-0.786 H 12.785 C 5.256,-13.493 0,-7.608 0,0" />
          </g>
          <g
             transform="translate(451.374,145.1428)"
             id="g4450">
            <path
               inkscape:connector-curvature="0"
               id="path4452"
               style="fill:#50a5e0;fill-opacity:1;fill-rule:nonzero;stroke:none"
               d="M 0,0 C 0.47,0 0.785,-0.313 0.785,-0.783 V -3.607 C 0.785,-4.078 0.47,-4.393 0,-4.393 h -7.06 c -7.531,0 -12.551,5.885 -12.551,13.414 V 49.89 c 0,0.471 0.315,0.786 0.785,0.786 h 3.138 c 0.469,0 0.785,-0.315 0.785,-0.786 V 9.021 C -14.903,3.922 -11.767,0 -7.06,0 Z" />
          </g>
        </g>
      </g>
    </g>
  </g>
</svg>
